<svg aria-hidden="true" style="width:0;height:0;position:absolute;overflow:hidden" xmlns="http://www.w3.org/2000/svg"><defs><symbol id="icon-search" viewBox="0 0 32 32"><path d="m31.008 27.231-7.58-6.447c-.784-.705-1.622-1.029-2.299-.998a11.954 11.954 0 0 0 2.87-7.787c0-6.627-5.373-12-12-12s-12 5.373-12 12 5.373 12 12 12c2.972 0 5.691-1.081 7.787-2.87-.031.677.293 1.515.998 2.299l6.447 7.58c1.104 1.226 2.907 1.33 4.007.23s.997-2.903-.23-4.007zM12 20a8 8 0 1 1 0-16 8 8 0 0 1 0 16z"/></symbol><symbol id="icon-film" viewBox="0 0 32 32"><path d="M30.335 26.445c-.128-.221-.538-.289-1.231-.202-1.275.165-2.201-.251-2.778-1.251-.437-.756-.55-1.516-.339-2.28s.836-1.854 1.874-3.272l.649-.904c1.928-2.663 2.323-4.979 1.186-6.95-1.157-2.006-4.5-1.837-6.903-.806C20.849 6.771 16.753 4 12 4 5.372 4 0 9.373 0 16s5.372 12 12 12c6.627 0 12-5.373 12-12 0-1.469-.277-2.871-.76-4.171a9.297 9.297 0 0 1 2.696-.536c1.202-.044 2.29.208 2.722.956.963 1.669.498 3.641-1.395 5.913l-.388.466c-2.214 2.657-2.743 4.984-1.591 6.982.466.806 1.207 1.381 2.225 1.727 1.018.345 1.879.312 2.585-.096.35-.202.431-.468.241-.796zM6.5 18.562a2.5 2.5 0 1 1 0-5 2.5 2.5 0 0 1 0 5zm5.5 5.5a2.5 2.5 0 1 1 0-5 2.5 2.5 0 0 1 0 5zm-.98-8a1.001 1.001 0 1 1 2.002.002 1.001 1.001 0 0 1-2.002-.002zm.98-3a2.5 2.5 0 1 1 0-5 2.5 2.5 0 0 1 0 5zm5.5 5.5a2.5 2.5 0 1 1 0-5 2.5 2.5 0 0 1 0 5z"/></symbol><symbol id="icon-brightness-contrast" viewBox="0 0 32 32"><path d="M16 8a8 8 0 1 0 0 16 8 8 0 0 0 0-16zm0 13V11c2.757 0 5 2.243 5 5s-2.243 5-5 5zm0 5a2 2 0 0 1 2 2v2a2 2 0 1 1-4 0v-2a2 2 0 0 1 2-2zm0-20a2 2 0 0 1-2-2V2a2 2 0 1 1 4 0v2a2 2 0 0 1-2 2zm14 8a2 2 0 1 1 0 4h-2a2 2 0 1 1 0-4h2zM6 16a2 2 0 0 1-2 2H2a2 2 0 1 1 0-4h2a2 2 0 0 1 2 2zm19.899 7.071 1.414 1.414a2 2 0 1 1-2.828 2.828l-1.414-1.414a2 2 0 1 1 2.828-2.828zM6.101 8.929 4.687 7.515a2 2 0 1 1 2.828-2.828l1.414 1.414a2 2 0 1 1-2.828 2.828zm19.798 0a2 2 0 1 1-2.828-2.828l1.414-1.414a2 2 0 1 1 2.828 2.828l-1.414 1.414zM6.101 23.071a2 2 0 1 1 2.828 2.828l-1.414 1.414a2 2 0 1 1-2.828-2.828l1.414-1.414z"/></symbol><symbol id="icon-moon" viewBox="0 0 24 24"><path d="M9.822 2.238a9 9 0 0 0 11.94 11.94C20.768 18.654 16.775 22 12 22 6.477 22 2 17.523 2 12c0-4.775 3.346-8.768 7.822-9.762Zm8.342.053L19 2.5v1l-.836.209a2 2 0 0 0-1.455 1.455L16.5 6h-1l-.209-.836a2 2 0 0 0-1.455-1.455L13 3.5v-1l.836-.209A2 2 0 0 0 15.29.836L15.5 0h1l.209.836a2 2 0 0 0 1.455 1.455Zm5 5L24 7.5v1l-.836.209a2 2 0 0 0-1.455 1.455L21.5 11h-1l-.209-.836a2 2 0 0 0-1.455-1.455L18 8.5v-1l.836-.209a2 2 0 0 0 1.455-1.455L20.5 5h1l.209.836a2 2 0 0 0 1.455 1.455Z"/></symbol></defs></svg>