<svg aria-hidden="true" style="position: absolute; width: 0; height: 0; overflow: hidden;" version="1.1" xmlns="http://www.w3.org/2000/svg" xmlns:xlink="http://www.w3.org/1999/xlink">
<defs>
<symbol id="icon-search" viewBox="0 0 32 32"><path d="M31.008 27.231l-7.58-6.447c-0.784-0.705-1.622-1.029-2.299-0.998 1.789-2.096 2.87-4.815 2.87-7.787 0-6.627-5.373-12-12-12s-12 5.373-12 12 5.373 12 12 12c2.972 0 5.691-1.081 7.787-2.87-0.031 0.677 0.293 1.515 0.998 2.299l6.447 7.58c1.104 1.226 2.907 1.33 4.007 0.23s0.997-2.903-0.23-4.007zM12 20c-4.418 0-8-3.582-8-8s3.582-8 8-8 8 3.582 8 8-3.582 8-8 8z"></path></symbol>
<symbol id="icon-film" viewBox="0 0 32 32"><path d="M30.335 26.445c-0.128-0.221-0.538-0.289-1.231-0.202-1.275 0.165-2.201-0.251-2.778-1.251-0.437-0.756-0.55-1.516-0.339-2.28s0.836-1.854 1.874-3.272l0.649-0.904c1.928-2.663 2.323-4.979 1.186-6.95-1.157-2.006-4.5-1.837-6.903-0.806-1.944-4.009-6.040-6.78-10.793-6.78-6.628 0-12 5.373-12 12s5.372 12 12 12c6.627 0 12-5.373 12-12 0-1.469-0.277-2.871-0.76-4.171 0.811-0.291 1.781-0.502 2.696-0.536 1.202-0.044 2.29 0.208 2.722 0.956 0.963 1.669 0.498 3.641-1.395 5.913l-0.388 0.466c-2.214 2.657-2.743 4.984-1.591 6.982 0.466 0.806 1.207 1.381 2.225 1.727 1.018 0.345 1.879 0.312 2.585-0.096 0.35-0.202 0.431-0.468 0.241-0.796zM6.5 18.562c-1.381 0-2.5-1.119-2.5-2.5 0-1.38 1.119-2.5 2.5-2.5s2.5 1.119 2.5 2.5c0 1.381-1.119 2.5-2.5 2.5zM12 24.062c-1.381 0-2.5-1.119-2.5-2.5s1.119-2.5 2.5-2.5 2.5 1.119 2.5 2.5-1.119 2.5-2.5 2.5zM11.020 16.062c0-0.552 0.449-1 1.001-1s1 0.447 1 1c0 0.553-0.448 1-1 1s-1.001-0.447-1.001-1zM12 13.062c-1.381 0-2.5-1.119-2.5-2.5s1.119-2.5 2.5-2.5 2.5 1.119 2.5 2.5c0 1.381-1.119 2.5-2.5 2.5zM17.5 18.562c-1.381 0-2.5-1.119-2.5-2.5 0-1.38 1.119-2.5 2.5-2.5s2.5 1.119 2.5 2.5c0 1.381-1.119 2.5-2.5 2.5z"></path></symbol>
<symbol id="icon-brightness-contrast" viewBox="0 0 32 32"><path d="M16 8c-4.418 0-8 3.582-8 8s3.582 8 8 8 8-3.582 8-8-3.582-8-8-8zM16 21v-10c2.757 0 5 2.243 5 5s-2.243 5-5 5zM16 26c1.105 0 2 0.895 2 2v2c0 1.105-0.895 2-2 2s-2-0.895-2-2v-2c0-1.105 0.895-2 2-2zM16 6c-1.105 0-2-0.895-2-2v-2c0-1.105 0.895-2 2-2s2 0.895 2 2v2c0 1.105-0.895 2-2 2zM30 14c1.105 0 2 0.895 2 2s-0.895 2-2 2h-2c-1.105 0-2-0.895-2-2s0.895-2 2-2h2zM6 16c0 1.105-0.895 2-2 2h-2c-1.105 0-2-0.895-2-2s0.895-2 2-2h2c1.105 0 2 0.895 2 2zM25.899 23.071l1.414 1.414c0.781 0.781 0.781 2.047 0 2.828s-2.047 0.781-2.828 0l-1.414-1.414c-0.781-0.781-0.781-2.047 0-2.828s2.047-0.781 2.828 0zM6.101 8.929l-1.414-1.414c-0.781-0.781-0.781-2.047 0-2.828s2.047-0.781 2.828 0l1.414 1.414c0.781 0.781 0.781 2.047 0 2.828s-2.047 0.781-2.828 0zM25.899 8.929c-0.781 0.781-2.047 0.781-2.828 0s-0.781-2.047 0-2.828l1.414-1.414c0.781-0.781 2.047-0.781 2.828 0s0.781 2.047 0 2.828l-1.414 1.414zM6.101 23.071c0.781-0.781 2.047-0.781 2.828 0s0.781 2.047 0 2.828l-1.414 1.414c-0.781 0.781-2.047 0.781-2.828 0s-0.781-2.047 0-2.828l1.414-1.414z"></path></symbol>
<symbol id="icon-moon" viewBox="0 0 24 24"><path d="M9.8216 2.23796C9.29417 3.38265 9 4.65697 9 6C9 10.9706 13.0294 15 18 15C19.343 15 20.6174 14.7058 21.762 14.1784C20.7678 18.6537 16.7747 22 12 22C6.47715 22 2 17.5228 2 12C2 7.22532 5.3463 3.23221 9.8216 2.23796ZM18.1642 2.29104L19 2.5V3.5L18.1642 3.70896C17.4476 3.8881 16.8881 4.4476 16.709 5.16417L16.5 6H15.5L15.291 5.16417C15.1119 4.4476 14.5524 3.8881 13.8358 3.70896L13 3.5V2.5L13.8358 2.29104C14.5524 2.1119 15.1119 1.5524 15.291 0.835829L15.5 0H16.5L16.709 0.835829C16.8881 1.5524 17.4476 2.1119 18.1642 2.29104ZM23.1642 7.29104L24 7.5V8.5L23.1642 8.70896C22.4476 8.8881 21.8881 9.4476 21.709 10.1642L21.5 11H20.5L20.291 10.1642C20.1119 9.4476 19.5524 8.8881 18.8358 8.70896L18 8.5V7.5L18.8358 7.29104C19.5524 7.1119 20.1119 6.5524 20.291 5.83583L20.5 5H21.5L21.709 5.83583C21.8881 6.5524 22.4476 7.1119 23.1642 7.29104Z"></path></symbol>
</defs>
</svg>